<?xml version="1.0" encoding="iso-8859-1"?>
<!-- Generator: Adobe Illustrator 19.0.0, SVG Export Plug-In . SVG Version: 6.00 Build 0)  -->
<svg version="1.1" id="Capa_1" xmlns="http://www.w3.org/2000/svg" xmlns:xlink="http://www.w3.org/1999/xlink" x="0px" y="0px"
	 viewBox="0 0 512 512" style="enable-background:new 0 0 512 512;" xml:space="preserve">
<g>
	<g>
		<path d="M445.493,136h-11.724l6.358-18.916c0.769-0.17,1.536-0.351,2.301-0.556c13.595-3.643,24.958-12.362,31.996-24.551
			c7.038-12.189,8.907-26.389,5.264-39.984L466.051,1.094l-50.898,13.638c-13.596,3.643-24.959,12.362-31.997,24.551
			c-7.038,12.189-8.907,26.39-5.264,39.984c0.205,0.765,0.431,1.521,0.668,2.272L330.512,136h-36.018v-17.819L329.596,0H180.493
			v20.502C161.862,7.314,138.072,0,117.634,0H60.39l36.103,121.548V136h-31c-19.299,0-35,15.701-35,35v240c0,19.299,15.701,35,35,35
			h145v36h-30v30h150v-30h-30v-36h145c19.299,0,35-15.701,35-35V171C480.493,151.701,464.793,136,445.493,136z M409.137,54.283
			c3.031-5.25,7.924-9.004,13.78-10.573l21.92-5.874l5.874,21.92c1.569,5.855,0.764,11.971-2.267,17.22
			c-3.031,5.249-7.924,9.004-13.779,10.573c-5.853,1.569-11.966,0.764-17.215-2.264l-0.012-0.007
			c-5.246-3.031-8.999-7.923-10.568-13.776C405.301,65.648,406.107,59.532,409.137,54.283z M395.752,107.4l6.689,3.862
			c0.001,0.001,0.002,0.001,0.003,0.002c0.001,0,0.002,0.001,0.002,0.001l6.689,3.862l-22.428,66.726l-37.528-21.667L395.752,107.4z
			 M339.953,189.5l25.981,15L284.24,346h-34.642L339.953,189.5z M304.044,166l-1.618,1.833l11.547,6.667l-73.479,127.27V201h9
			c21.375,0,39.305-14.986,43.866-35H304.044z M141.493,171c-8.271,0-15-6.729-15-15v-25h138v25c0,8.271-6.729,15-15,15H141.493z
			 M210.493,201v145h-30V201H210.493z M117.634,30c23.037,0,54.456,14.377,62.705,35.001L184.333,75h26.16V30h78.897l-21.089,71
			H121.686l-21.089-71H117.634z M60.493,171c0-2.757,2.243-5,5-5h32.134c4.561,20.014,22.491,35,43.866,35h9v145h-90V171z
			 M270.493,482h-30v-36h30V482z M450.493,411c0,2.757-2.243,5-5,5h-380c-2.757,0-5-2.243-5-5v-35h390V411z M450.493,346H318.88
			l73.034-126.5l11.547,6.667L423.685,166h21.808c2.757,0,5,2.243,5,5V346z"/>
	</g>
</g>
<g>
</g>
<g>
</g>
<g>
</g>
<g>
</g>
<g>
</g>
<g>
</g>
<g>
</g>
<g>
</g>
<g>
</g>
<g>
</g>
<g>
</g>
<g>
</g>
<g>
</g>
<g>
</g>
<g>
</g>
</svg>
