<svg id="Capa_1" enable-background="new 0 0 512 512" height="512" viewBox="0 0 512 512" width="512" xmlns="http://www.w3.org/2000/svg"><g><path d="m497 .005h-482c-8.284 0-15 6.716-15 15v270c0 8.284 6.715 14.999 14.999 15l156.14.012c7.688 13.422 11.404 17.27 44.488 58.659l-13.804 27.313c-37.12-22.284-85.121-4.458-99.077 36.071-12.179 35.371 6.689 74.057 42.06 86.234 25.025 8.619 52.239 1.775 70.327-16.465 2.508-1.787-1.419 2.726 53.845-66.409 55.339 69.23 51.338 64.627 53.855 66.417 17.788 17.933 44.903 25.209 70.319 16.457 35.371-12.178 54.239-50.863 42.061-86.235-13.978-40.594-62.013-58.317-99.076-36.071l-13.804-27.312c33.641-42.086 36.841-45.313 44.488-58.651.059 0 130.106.01 130.18.01 8.279 0 15-6.716 15-15v-270.03c-.001-8.285-6.717-15-15.001-15zm-109.692 210c-2.103-29.072-12.235-57.726-30.493-82.461-6.622-8.97-20.418-7.826-25.456 2.143l-40.593 80.318h-260.766v-120h452v120zm-126.876 60.018-69.765-.005v-30.013h84.937zm-99.765-30.018v30.011l-50.334-.004v-30.007zm190.666-180v-30h50.334v30zm-30 0h-50.333v-30h50.333zm-80.333 0h-50.333v-30h50.333zm-80.333 0h-50.334v-30h50.334zm321.333 0h-50.333v-30h50.333zm-401.667-30v30h-50.333v-30zm-50.333 210h50.333v30.005l-50.333-.005zm177.165 60.014 38.106.003-14.767 29.218c-24.763-30.98-22.434-28.056-23.339-29.221zm-52.593 179.909c-19.775-6.81-30.271-28.325-23.461-48.103 6.794-19.73 28.369-30.254 48.104-23.461 19.775 6.81 30.271 28.325 23.461 48.103-6.795 19.731-28.374 30.252-48.104 23.461zm147.166-95.491 11.934 23.612c-3.135 4.994-5.616 10.379-7.372 16.015l-18.119-22.667zm57.006 23.928c19.729-6.795 41.309 3.731 48.103 23.46 6.809 19.776-3.682 41.293-23.462 48.104-19.729 6.796-41.309-3.731-48.103-23.461v.001c-6.809-19.777 3.682-41.293 23.462-48.104zm-88.751-90.75 75.847-150.073c20.314 43.76 14.519 96.197-16.859 134.768-.128.157-97.184 121.573-97.325 121.749-1.755-5.634-4.236-11.016-7.369-16.009 2.939-5.816 28.433-56.258 32.185-63.681m130.157-104.364h15.038v30.023l-21.582-.002c3.165-9.81 5.346-19.867 6.544-30.021zm45.038 30.025v-30.025h50.333v30.029z"/></g></svg>